<?xml version="1.0" encoding="UTF-8"?>
<svg version="1.1" xmlns="http://www.w3.org/2000/svg" width="746" height="334">
<path d="M0 0 C3.83659439 1.84465142 6.197117 4.25613813 7.9765625 8.12109375 C9.29044127 12.68800971 9.23758181 16.34717554 7.23828125 20.77734375 C-0.97441005 35.51873601 -11.47403006 49.19324219 -26 58 C-26.53705566 58.33789551 -27.07411133 58.67579102 -27.62744141 59.02392578 C-45.66664984 70.30403871 -67.23123474 78.2939978 -88.6875 74.31640625 C-100.83225349 70.79851492 -110.02077581 64.77900136 -119 56 C-119.63808594 55.38898438 -120.27617187 54.77796875 -120.93359375 54.1484375 C-123.99383981 51.16316406 -126.8414777 48.05694965 -129.625 44.8125 C-134.97783181 38.52659315 -134.97783181 38.52659315 -142.43359375 35.76171875 C-152.74079683 35.50705443 -162.27300703 37.83938348 -170 45 C-175.17887618 50.00907696 -175.99612689 55.73867632 -177.03125 62.6953125 C-178.21360661 66.72867418 -179.73143347 68.40227463 -183 71 C-187.32511884 72.56456473 -191.07926523 72.32396223 -195.375 70.8125 C-199.04545684 68.27813694 -200.59640217 66.21079349 -202 62 C-202.95076596 50.21050211 -198.81250001 38.09965036 -191.32421875 28.953125 C-179.10138392 15.89518965 -163.65262115 10.10101783 -146.125 8.6875 C-131.57359285 9.19337714 -120.146632 15.09336981 -110.2734375 25.48046875 C-108.27731938 27.69266151 -106.3154664 29.92654933 -104.375 32.1875 C-97.87082887 39.70747408 -90.34613185 46.72915019 -80.22265625 48.48046875 C-64.30205366 49.2711564 -46.94102755 40.22288338 -35.0625 30.0625 C-33.23677804 28.36518047 -32.1147618 27.2295236 -31 25 C-30.34 25 -29.68 25 -29 25 C-28.58814453 24.13761719 -28.58814453 24.13761719 -28.16796875 23.2578125 C-26.11585747 19.29085492 -23.50997194 15.68777198 -21 12 C-20.10474609 10.64455078 -20.10474609 10.64455078 -19.19140625 9.26171875 C-18.59199219 8.37097656 -17.99257813 7.48023437 -17.375 6.5625 C-16.55128906 5.32693359 -16.55128906 5.32693359 -15.7109375 4.06640625 C-11.62030261 -0.87410941 -6.01432652 -1.02548425 0 0 Z " fill="#2F9A44" transform="translate(278,109)"/>
<path d="M0 0 C2.67039288 2.40335359 2.97705714 3.62706612 3.19921875 7.23828125 C2.99483834 11.09746428 2.25283067 13.87966863 0.9375 17.5 C0.47411834 18.82988004 0.01334855 20.160672 -0.4453125 21.4921875 C-0.69571289 22.21374023 -0.94611328 22.93529297 -1.20410156 23.67871094 C-5.53442593 36.3083809 -9.14182295 48.9649581 -11.734375 62.06640625 C-12.25502288 64.63683611 -12.77719566 67.2068892 -13.30249023 69.77636719 C-13.43854014 70.44282414 -13.57459005 71.1092811 -13.71476269 71.79593372 C-15.3172467 79.60731736 -17.03866635 87.39200848 -18.76953125 95.17578125 C-18.93201481 95.90700762 -19.09449837 96.63823399 -19.26190567 97.39161873 C-20.26926012 101.92241907 -21.28001133 106.45245587 -22.29204941 110.98221207 C-22.99963038 114.15036562 -23.70587227 117.31881714 -24.41214848 120.48726177 C-25.98025016 127.5218746 -27.55033949 134.55604095 -29.12207031 141.58984375 C-30.49259672 147.72349153 -31.85848231 153.85815194 -33.22035217 159.99372864 C-34.02849982 163.63259494 -34.83957359 167.27080342 -35.65170288 170.90878296 C-35.99924693 172.46795062 -36.34568848 174.0273646 -36.69082642 175.58706665 C-38.68152184 184.57662545 -40.86260275 193.49458995 -43.25700378 202.38594055 C-44.56529709 207.25661911 -45.73191556 212.13607883 -46.8125 217.0625 C-50.59651294 233.63380642 -56.11764232 249.83305893 -61.6875 265.875 C-62.04352295 266.93267578 -62.3995459 267.99035156 -62.76635742 269.08007812 C-66.06418093 278.35325644 -66.06418093 278.35325644 -71 281 C-74.22499219 280.93550016 -76.15186814 280.58491853 -78.8125 278.75 C-80.7606379 275.87905994 -81.20227796 273.11365718 -80.58422852 269.7109375 C-80.20415649 268.55464844 -80.20415649 268.55464844 -79.81640625 267.375 C-79.53168457 266.50101562 -79.24696289 265.62703125 -78.95361328 264.7265625 C-77.69337876 261.12331133 -76.38645885 257.54048825 -75.04541016 253.96655273 C-59.45428446 212.21957866 -50.27772919 168.51562021 -42.26495361 124.77886963 C-36.25947425 92.19996816 -29.17946761 59.74159477 -21.3125 27.5625 C-21.05138428 26.47428955 -20.79026855 25.3860791 -20.52124023 24.26489258 C-15.28225011 3.28116068 -15.28225011 3.28116068 -10 -1 C-6.29478116 -2.66096017 -3.59584951 -1.60665617 0 0 Z " fill="#309944" transform="translate(690,27)"/>
<path d="M0 0 C-3.34097604 2.05598526 -5.35240295 2.07554126 -9.1875 1.5 C-16.07605218 0.72950948 -21.32819 1.80229207 -27.625 4.625 C-31 6 -31 6 -34.25 5.75 C-39.41095555 6.0940637 -42.38400383 8.5384608 -46.546875 11.46875 C-49 13 -49 13 -52 13 C-52.0825 13.598125 -52.165 14.19625 -52.25 14.8125 C-53.20944382 17.61087782 -54.6741216 18.2555912 -57 20 C-57.79623822 22.09415804 -57.79623822 22.09415804 -58 24 C-58.99 24 -59.98 24 -61 24 C-61.28875 25.134375 -61.5775 26.26875 -61.875 27.4375 C-62.24625 28.613125 -62.6175 29.78875 -63 31 C-63.99 31.495 -63.99 31.495 -65 32 C-65.72693904 33.97888961 -66.39816251 35.97954558 -67 38 C-68.28051365 35.04384278 -67.97087222 33.91982455 -66.84765625 30.828125 C-59.90138589 16.90518485 -50.02839373 6.90974878 -34.9375 1.625 C-22.73555098 -1.9797588 -12.4307622 -2.85296182 0 0 Z " fill="#307D41" transform="translate(146,120)"/>
<path d="M0 0 C0 0.99 0 1.98 0 3 C1.32 3 2.64 3 4 3 C4.3403125 4.11375 4.3403125 4.11375 4.6875 5.25 C6.24407532 8.51139591 8.08518854 9.92894975 11 12 C10.67 13.32 10.34 14.64 10 16 C8.89591797 14.75283203 8.89591797 14.75283203 7.76953125 13.48046875 C6.78418699 12.38251372 5.79849123 11.28487407 4.8125 10.1875 C4.32974609 9.64029297 3.84699219 9.09308594 3.34960938 8.52929688 C-0.19127977 4.60817803 -3.30043191 1.42930094 -8.7265625 0.56640625 C-19.40817773 0.55201054 -27.66313484 3.33050787 -36 10 C-36.33 9.34 -36.66 8.68 -37 8 C-36.67 7.01 -36.34 6.02 -36 5 C-34.35 4.67 -32.7 4.34 -31 4 C-31 3.34 -31 2.68 -31 2 C-22.72952561 -0.67714778 -8.34400766 -4.17200383 0 0 Z " fill="#276734" transform="translate(144,144)"/>
<path d="M0 0 C1.30862288 3.64753006 0.67171665 5.94202502 -0.4765625 9.5859375 C-0.81558594 10.67600098 -1.15460937 11.76606445 -1.50390625 12.88916016 C-2.05884766 14.61465088 -2.05884766 14.61465088 -2.625 16.375 C-2.99238281 17.54208496 -3.35976563 18.70916992 -3.73828125 19.91162109 C-6.30666319 28.00990957 -8.99455091 36.05289903 -12 44 C-13.25257892 40.24226324 -12.74565004 37.86382292 -12 34 C-11.33333333 32.66666667 -10.66666667 31.33333333 -10 30 C-9.61250787 27.67504723 -9.27017161 25.34148732 -9 23 C-8.34 23 -7.68 23 -7 23 C-6.01 18.38 -5.02 13.76 -4 9 C-3.34 9 -2.68 9 -2 9 C-2.04125 8.071875 -2.0825 7.14375 -2.125 6.1875 C-2 3 -2 3 0 0 Z " fill="#23592F" transform="translate(640,249)"/>
<path d="M0 0 C0.33 0 0.66 0 1 0 C0.67 4.62 0.34 9.24 0 14 C0.66 14 1.32 14 2 14 C2.28875 13.38125 2.5775 12.7625 2.875 12.125 C4 10 4 10 6 8 C6.33 10.64 6.66 13.28 7 16 C7.99 16.33 8.98 16.66 10 17 C7 19 7 19 4 18.8125 C0.91376533 17.97664478 -0.2302492 17.60805381 -2 15 C-3.15195652 11.04946676 -2.85477786 8.56433359 -1.5625 4.6875 C-1.27503906 3.80449219 -0.98757813 2.92148437 -0.69140625 2.01171875 C-0.46324219 1.34785156 -0.23507812 0.68398438 0 0 Z " fill="#319149" transform="translate(612,289)"/>
<path d="M0 0 C0.33 0 0.66 0 1 0 C0.30433343 8.6909331 -1.65801312 17.07615143 -3.5625 25.5625 C-3.89561449 27.06305516 -4.22830035 28.56370554 -4.56054688 30.06445312 C-5.36875778 33.71074678 -6.18276619 37.35571664 -7 41 C-7.33 41 -7.66 41 -8 41 C-8.0821704 39.14660088 -8.13971265 37.29210418 -8.1875 35.4375 C-8.22230469 34.40496094 -8.25710938 33.37242187 -8.29296875 32.30859375 C-8.00551457 29.06227783 -7.12838773 26.89936123 -5.75952148 23.97924805 C-4.25259761 20.05233328 -3.94787242 15.83993835 -3.4375 11.6875 C-3.2147041 9.89876717 -2.98458789 8.11092625 -2.74609375 6.32421875 C-2.64997803 5.54135498 -2.5538623 4.75849121 -2.45483398 3.9519043 C-2 2 -2 2 0 0 Z " fill="#296935" transform="translate(667,132)"/>
<path d="M0 0 C2.57685461 3.86528191 1.90613678 5.25605258 1.125 9.75 C0.47801481 13.53363493 -0.00003471 16.99147823 0.015625 20.8359375 C-0.00290691 24.58865021 -0.79580226 25.11758758 -3 28 C-3.85266764 30.96624985 -4.44870752 33.96464845 -5 37 C-5.33 37 -5.66 37 -6 37 C-5.37947744 28.84489702 -3.97159759 20.9021549 -2.4375 12.875 C-2.20353516 11.63234375 -1.96957031 10.3896875 -1.72851562 9.109375 C-1.15612136 6.07218093 -0.57987052 3.03577394 0 0 Z " fill="#2A6B39" transform="translate(648,150)"/>
<path d="M0 0 C2.02558881 3.34939881 2.21738987 5.86962551 2.125 9.75 C2.10695313 10.73484375 2.08890625 11.7196875 2.0703125 12.734375 C2.04710938 13.48203125 2.02390625 14.2296875 2 15 C2.7940625 15.29777344 3.588125 15.59554687 4.40625 15.90234375 C7 17 7 17 8.5 18.5625 C10.50706089 20.48593335 12.29667526 20.63468585 15 21 C15 21.33 15 21.66 15 22 C9.23582927 21.74883788 5.10197251 21.4748791 1 17 C-1.59138932 12.6810178 -1.39442815 7.89824726 -1 3 C-0.67 2.01 -0.34 1.02 0 0 Z " fill="#276837" transform="translate(77,159)"/>
<path d="M0 0 C0.66 0.99 1.32 1.98 2 3 C0.71937515 4.7074998 -0.61767557 6.37373596 -2 8 C-2.66 8 -3.32 8 -4 8 C-4 8.66 -4 9.32 -4 10 C-5.65002828 11.35386936 -7.3174387 12.68678142 -9 14 C-9.33 14.66 -9.66 15.32 -10 16 C-12.06640625 16.4140625 -12.06640625 16.4140625 -14.5625 16.625 C-15.38878906 16.69976562 -16.21507812 16.77453125 -17.06640625 16.8515625 C-18.02353516 16.92503906 -18.02353516 16.92503906 -19 17 C-17.14517108 15.0633404 -15.51873075 13.68279981 -13.25 12.1875 C-6.72286269 7.95958187 -6.72286269 7.95958187 -2 2 C-1.34 2 -0.68 2 0 2 C0 1.34 0 0.68 0 0 Z " fill="#2B713D" transform="translate(249,132)"/>
<path d="M0 0 C0.66 0.33 1.32 0.66 2 1 C1.20920362 10.0150787 -0.13157553 19.3947266 -3 28 C-3.66 28 -4.32 28 -5 28 C-4.38277416 18.43299944 -2.1798659 9.30752043 0 0 Z " fill="#2C713A" transform="translate(660,92)"/>
<path d="M0 0 C0.33 0 0.66 0 1 0 C0.55677807 7.23766805 -0.86114815 13.7298144 -3.0625 20.625 C-3.34416016 21.53378906 -3.62582031 22.44257812 -3.91601562 23.37890625 C-4.60222683 25.58873894 -5.29692992 27.79548541 -6 30 C-6.33 30 -6.66 30 -7 30 C-7.16966615 25.58868009 -7.00075325 22.87645943 -5 19 C-5.020625 18.113125 -5.04125 17.22625 -5.0625 16.3125 C-4.95200305 10.45616191 -2.68092551 5.15203947 0 0 Z " fill="#2D793C" transform="translate(688,43)"/>
<path d="M0 0 C0.33 0 0.66 0 1 0 C1 2.97 1 5.94 1 9 C0.34 9 -0.32 9 -1 9 C-0.979375 10.258125 -0.95875 11.51625 -0.9375 12.8125 C-0.89113917 15.64051087 -1.08307039 17.24921116 -2 20 C-2.66 20 -3.32 20 -4 20 C-4.12375 21.03125 -4.2475 22.0625 -4.375 23.125 C-4.93889814 26.62116846 -5.78682059 29.68397627 -7 33 C-8.30684608 29.34561079 -7.6738254 26.95521422 -6.6015625 23.28125 C-6.28703125 22.18425781 -5.9725 21.08726562 -5.6484375 19.95703125 C-5.31070313 18.81621094 -4.97296875 17.67539063 -4.625 16.5 C-3.97115594 14.23964066 -3.31750217 11.97922627 -2.6640625 9.71875 C-2.22247803 8.21731445 -2.22247803 8.21731445 -1.77197266 6.68554688 C-1.1336947 4.46509856 -0.54138176 2.24563287 0 0 Z " fill="#296839" transform="translate(634,218)"/>
<path d="M0 0 C-3.79551261 2.52068395 -7.01039557 2.05167212 -11.4375 1.6875 C-12.73558594 1.58824219 -14.03367188 1.48898438 -15.37109375 1.38671875 C-18.31233941 1.07328138 -21.11844524 0.64959905 -24 0 C-24 -0.33 -24 -0.66 -24 -1 C-15.51316367 -2.69736727 -8.33057964 -1.91193631 0 0 Z " fill="#2E733B" transform="translate(146,120)"/>
<path d="M0 0 C0.66 0.66 1.32 1.32 2 2 C1.828125 4.21484375 1.828125 4.21484375 1.25 6.9375 C1.05148437 7.91203125 0.85296875 8.8865625 0.6484375 9.890625 C0.32746094 11.42976563 0.32746094 11.42976563 0 13 C-0.38080709 15.06143572 -0.75611761 17.12389707 -1.125 19.1875 C-1.41666667 20.79166667 -1.70833333 22.39583333 -2 24 C-2.33 24 -2.66 24 -3 24 C-3.09945415 17.88909517 -3.0712828 12.02596573 -2 6 C-1.34 6 -0.68 6 0 6 C0 4.02 0 2.04 0 0 Z " fill="#265C31" transform="translate(673,100)"/>
<path d="M0 0 C0.33 0 0.66 0 1 0 C1.57374185 6.88490225 0.4753869 11.02667877 -3 17 C-3.66 16.67 -4.32 16.34 -5 16 C-3.35 10.72 -1.7 5.44 0 0 Z " fill="#2D783F" transform="translate(674,37)"/>
<path d="M0 0 C0.33 0 0.66 0 1 0 C1.0270043 1.45823212 1.04639787 2.91660675 1.0625 4.375 C1.07410156 5.18710937 1.08570313 5.99921875 1.09765625 6.8359375 C1 9 1 9 0 11 C-0.66 11 -1.32 11 -2 11 C-2.33 13.31 -2.66 15.62 -3 18 C-3.66 18 -4.32 18 -5 18 C-3.75971762 11.82777121 -2.10396411 5.93317878 0 0 Z " fill="#296B32" transform="translate(622,261)"/>
<path d="M0 0 C0.66 0 1.32 0 2 0 C2.27908468 5.42121998 1.42721053 9.37857235 -0.5 14.4375 C-0.73847656 15.07365234 -0.97695313 15.70980469 -1.22265625 16.36523438 C-1.80490924 17.91402732 -2.40101069 19.45760253 -3 21 C-4.25257892 17.24226324 -3.74565004 14.86382292 -3 11 C-2.33333333 9.66666667 -1.66666667 8.33333333 -1 7 C-0.61250787 4.67504723 -0.27017161 2.34148732 0 0 Z " fill="#2D6E38" transform="translate(631,272)"/>
<path d="M0 0 C0.33 0 0.66 0 1 0 C0.27637073 6.39205856 -0.80343362 12.68027076 -2 19 C-2.66 18.67 -3.32 18.34 -4 18 C-2.28571429 2.28571429 -2.28571429 2.28571429 0 0 Z " fill="#377B44" transform="translate(655,186)"/>
<path d="M0 0 C4.19283118 0.64844086 8.26499921 1.51216646 12.375 2.5625 C13.43460938 2.83191406 14.49421875 3.10132813 15.5859375 3.37890625 C16.38257813 3.58386719 17.17921875 3.78882813 18 4 C18 4.33 18 4.66 18 5 C11.03672362 5.33693273 5.56654456 4.3030887 -1 2 C-0.67 1.34 -0.34 0.68 0 0 Z " fill="#2C6E37" transform="translate(184,179)"/>
<path d="M0 0 C0.33 0 0.66 0 1 0 C2.19438176 6.89287785 2.28302979 12.65088071 -1 19 C-1.66 19.33 -2.32 19.66 -3 20 C-2.22602467 13.29221378 -1.14231412 6.65425699 0 0 Z " fill="#246230" transform="translate(652,129)"/>
<path d="M0 0 C0.33 1.32 0.66 2.64 1 4 C0.01 4.66 -0.98 5.32 -2 6 C-3.20450304 8.55183404 -3.20450304 8.55183404 -4 11 C-4.66 11 -5.32 11 -6 11 C-6.33 12.65 -6.66 14.3 -7 16 C-7.99 15.34 -8.98 14.68 -10 14 C-6.7 9.38 -3.4 4.76 0 0 Z " fill="#2D6E3B" transform="translate(260,117)"/>
<path d="M0 0 C3.82214238 2.31340196 5.37942586 4.2466821 6.4375 8.5 C7.21501682 12.07535293 6.8903312 13.86133687 5 17 C4.94392578 16.07767578 4.94392578 16.07767578 4.88671875 15.13671875 C4.82097656 14.32847656 4.75523437 13.52023438 4.6875 12.6875 C4.60048828 11.48673828 4.60048828 11.48673828 4.51171875 10.26171875 C3.90930512 7.59914248 2.9728524 6.80844803 1 5 C0.3125 2.3125 0.3125 2.3125 0 0 Z " fill="#276C36" transform="translate(280,111)"/>
<path d="M0 0 C-5.93852229 3.95901486 -12.08104381 4.24710558 -19 4 C-19 3.67 -19 3.34 -19 3 C-17.35 3 -15.7 3 -14 3 C-14 2.34 -14 1.68 -14 1 C-9.23692563 0.04738513 -4.8333472 -0.08333357 0 0 Z " fill="#2A6F3B" transform="translate(222,180)"/>
<path d="M0 0 C0.66 0.33 1.32 0.66 2 1 C0.68 7.6 -0.64 14.2 -2 21 C-2.33 21 -2.66 21 -3 21 C-3 17.37 -3 13.74 -3 10 C-2.34 10 -1.68 10 -1 10 C-0.67 6.7 -0.34 3.4 0 0 Z " fill="#256634" transform="translate(678,80)"/>
<path d="M0 0 C0.33 0 0.66 0 1 0 C0.91621094 0.72445313 0.83242188 1.44890625 0.74609375 2.1953125 C0.20472195 7.3349182 -0.23721798 11.91365942 1 17 C0.34 17 -0.32 17 -1 17 C-3.6580758 10.56465858 -2.39462284 6.39853522 0 0 Z " fill="#2F6C3A" transform="translate(612,289)"/>
<path d="M0 0 C1.32 0 2.64 0 4 0 C4 0.66 4 1.32 4 2 C0.80973467 4.32019297 -2.41726669 6.34643078 -6 8 C-5.67 6.35 -5.34 4.7 -5 3 C-3.35 2.67 -1.7 2.34 0 2 C0 1.34 0 0.68 0 0 Z " fill="#2F7840" transform="translate(113,146)"/>
<path d="M0 0 C-5.01989102 4.11888494 -8.59858988 4.51211281 -15 4 C-12.35378667 2.64433366 -9.70317393 1.40491456 -6.9375 0.3125 C-6.26589844 0.04050781 -5.59429687 -0.23148438 -4.90234375 -0.51171875 C-3 -1 -3 -1 0 0 Z " fill="#2C6D3C" transform="translate(222,154)"/>
<path d="M0 0 C1 2 1 2 0.1875 4.5625 C-1 7 -1 7 -3 8 C-3.72693904 9.97888961 -4.39816251 11.97954558 -5 14 C-6.26937991 10.46675783 -5.7575638 8.66899682 -4.1875 5.3125 C-3.83042969 4.52488281 -3.47335938 3.73726562 -3.10546875 2.92578125 C-2 1 -2 1 0 0 Z " fill="#2A6838" transform="translate(84,144)"/>
<path d="M0 0 C0.66 0 1.32 0 2 0 C1.74337755 1.44010481 1.46909179 2.8770687 1.1875 4.3125 C1.03667969 5.11300781 0.88585937 5.91351563 0.73046875 6.73828125 C-0.07572236 9.23445587 -1.02052002 10.32422106 -3 12 C-3 8.98509443 -2.48047265 7.13135886 -1.5 4.3125 C-1.2215625 3.50425781 -0.943125 2.69601562 -0.65625 1.86328125 C-0.4396875 1.24839844 -0.223125 0.63351562 0 0 Z " fill="#2D7542" transform="translate(625,293)"/>
<path d="M0 0 C0.66 0.99 1.32 1.98 2 3 C-1.32307692 7.8 -1.32307692 7.8 -4.75 8.8125 C-5.4925 8.874375 -6.235 8.93625 -7 9 C-6.21654285 7.82780457 -5.42297164 6.66236332 -4.625 5.5 C-4.18414062 4.8503125 -3.74328125 4.200625 -3.2890625 3.53125 C-2.65097656 2.77328125 -2.65097656 2.77328125 -2 2 C-1.34 2 -0.68 2 0 2 C0 1.34 0 0.68 0 0 Z " fill="#246531" transform="translate(249,132)"/>
<path d="M0 0 C1.93719378 -0.05406122 3.87481921 -0.09282025 5.8125 -0.125 C6.89144531 -0.14820313 7.97039062 -0.17140625 9.08203125 -0.1953125 C12 0 12 0 15 2 C9.53891111 3.4002792 5.30723432 2.42705634 0 1 C0 0.67 0 0.34 0 0 Z " fill="#3A9448" transform="translate(193,181)"/>
<path d="M0 0 C1.65 0 3.3 0 5 0 C2.19195732 2.96404505 -0.18315774 5.44499019 -4 7 C-4 5.68 -4 4.36 -4 3 C-2.68 3 -1.36 3 0 3 C0 2.01 0 1.02 0 0 Z " fill="#266832" transform="translate(257,159)"/>
<path d="M0 0 C0.5534764 2.07553648 1 3.84365964 1 6 C1.66 6 2.32 6 3 6 C2.67 6.99 2.34 7.98 2 9 C0.35 7.35 -1.3 5.7 -3 4 C-2.67 3.01 -2.34 2.02 -2 1 C-1.34 0.67 -0.68 0.34 0 0 Z " fill="#379249" transform="translate(157,154)"/>
<path d="M0 0 C1.32 0.66 2.64 1.32 4 2 C1.03 4.475 1.03 4.475 -2 7 C-2.125 4.625 -2.125 4.625 -2 2 C-1.34 1.34 -0.68 0.68 0 0 Z " fill="#2C8144" transform="translate(264,152)"/>
<path d="M0 0 C0.33 0 0.66 0 1 0 C1 2.64 1 5.28 1 8 C0.34 8 -0.32 8 -1 8 C-1 8.66 -1 9.32 -1 10 C-1.66 10 -2.32 10 -3 10 C-2.01 6.7 -1.02 3.4 0 0 Z " fill="#236731" transform="translate(616,279)"/>
<path d="M0 0 C0.556875 0.309375 1.11375 0.61875 1.6875 0.9375 C4.12540433 2.05761821 6.36224186 2.56037364 9 3 C8.67 4.65 8.34 6.3 8 8 C6.85073734 7.04578192 5.70569459 6.08647955 4.5625 5.125 C3.92441406 4.59132812 3.28632813 4.05765625 2.62890625 3.5078125 C1 2 1 2 0 0 Z " fill="#286F36" transform="translate(155,160)"/>
<path d="M0 0 C-0.33 1.32 -0.66 2.64 -1 4 C-2.32 4 -3.64 4 -5 4 C-5 4.66 -5 5.32 -5 6 C-5.66 5.67 -6.32 5.34 -7 5 C-2.25 0 -2.25 0 0 0 Z " fill="#287434" transform="translate(268,110)"/>
<path d="M0 0 C3.62528568 -0.20140476 5.86501708 0.14223235 9 2 C9 2.66 9 3.32 9 4 C5.17902761 3.46930939 2.93828597 2.50298434 0 0 Z " fill="#266B37" transform="translate(174,176)"/>
<path d="" fill="#000000" transform="translate(0,0)"/>
<path d="" fill="#000000" transform="translate(0,0)"/>
<path d="" fill="#000000" transform="translate(0,0)"/>
<path d="" fill="#010000" transform="translate(0,0)"/>
<path d="" fill="#000000" transform="translate(0,0)"/>
<path d="" fill="#000000" transform="translate(0,0)"/>
<path d="" fill="#000000" transform="translate(0,0)"/>
<path d="" fill="#000000" transform="translate(0,0)"/>
<path d="" fill="#000000" transform="translate(0,0)"/>
<path d="" fill="#000000" transform="translate(0,0)"/>
<path d="" fill="#000000" transform="translate(0,0)"/>
<path d="" fill="#000000" transform="translate(0,0)"/>
<path d="" fill="#000000" transform="translate(0,0)"/>
<path d="" fill="#000000" transform="translate(0,0)"/>
<path d="" fill="#000000" transform="translate(0,0)"/>
<path d="" fill="#000000" transform="translate(0,0)"/>
<path d="" fill="#000000" transform="translate(0,0)"/>
<path d="" fill="#000000" transform="translate(0,0)"/>
<path d="" fill="#000000" transform="translate(0,0)"/>
<path d="" fill="#000000" transform="translate(0,0)"/>
<path d="" fill="#000000" transform="translate(0,0)"/>
<path d="" fill="#000000" transform="translate(0,0)"/>
<path d="" fill="#000000" transform="translate(0,0)"/>
<path d="" fill="#000000" transform="translate(0,0)"/>
<path d="" fill="#000000" transform="translate(0,0)"/>
<path d="" fill="#000000" transform="translate(0,0)"/>
<path d="" fill="#000000" transform="translate(0,0)"/>
<path d="" fill="#000000" transform="translate(0,0)"/>
<path d="" fill="#000000" transform="translate(0,0)"/>
<path d="" fill="#000000" transform="translate(0,0)"/>
<path d="" fill="#000000" transform="translate(0,0)"/>
<path d="" fill="#000000" transform="translate(0,0)"/>
<path d="" fill="#000000" transform="translate(0,0)"/>
<path d="" fill="#000000" transform="translate(0,0)"/>
<path d="" fill="#000000" transform="translate(0,0)"/>
<path d="" fill="#000000" transform="translate(0,0)"/>
<path d="" fill="#000000" transform="translate(0,0)"/>
<path d="" fill="#000000" transform="translate(0,0)"/>
<path d="" fill="#000000" transform="translate(0,0)"/>
<path d="" fill="#000000" transform="translate(0,0)"/>
<path d="" fill="#000000" transform="translate(0,0)"/>
<path d="" fill="#000000" transform="translate(0,0)"/>
<path d="" fill="#000000" transform="translate(0,0)"/>
<path d="" fill="#000000" transform="translate(0,0)"/>
<path d="" fill="#000000" transform="translate(0,0)"/>
<path d="" fill="#000000" transform="translate(0,0)"/>
<path d="" fill="#000000" transform="translate(0,0)"/>
<path d="" fill="#000000" transform="translate(0,0)"/>
<path d="" fill="#000000" transform="translate(0,0)"/>
<path d="" fill="#000000" transform="translate(0,0)"/>
<path d="" fill="#000000" transform="translate(0,0)"/>
<path d="" fill="#000000" transform="translate(0,0)"/>
<path d="" fill="#000000" transform="translate(0,0)"/>
<path d="" fill="#000000" transform="translate(0,0)"/>
<path d="" fill="#000000" transform="translate(0,0)"/>
<path d="" fill="#000000" transform="translate(0,0)"/>
<path d="" fill="#000000" transform="translate(0,0)"/>
<path d="" fill="#000000" transform="translate(0,0)"/>
<path d="" fill="#000000" transform="translate(0,0)"/>
<path d="" fill="#000000" transform="translate(0,0)"/>
<path d="" fill="#000000" transform="translate(0,0)"/>
<path d="" fill="#000000" transform="translate(0,0)"/>
<path d="" fill="#000000" transform="translate(0,0)"/>
<path d="" fill="#000000" transform="translate(0,0)"/>
<path d="" fill="#000000" transform="translate(0,0)"/>
<path d="" fill="#000000" transform="translate(0,0)"/>
<path d="" fill="#000000" transform="translate(0,0)"/>
<path d="" fill="#000000" transform="translate(0,0)"/>
<path d="" fill="#000000" transform="translate(0,0)"/>
<path d="" fill="#000000" transform="translate(0,0)"/>
<path d="" fill="#000000" transform="translate(0,0)"/>
<path d="" fill="#000000" transform="translate(0,0)"/>
<path d="" fill="#000000" transform="translate(0,0)"/>
<path d="" fill="#000000" transform="translate(0,0)"/>
<path d="" fill="#000000" transform="translate(0,0)"/>
<path d="" fill="#000000" transform="translate(0,0)"/>
<path d="" fill="#000000" transform="translate(0,0)"/>
<path d="" fill="#000000" transform="translate(0,0)"/>
<path d="" fill="#000000" transform="translate(0,0)"/>
<path d="" fill="#000000" transform="translate(0,0)"/>
<path d="" fill="#000000" transform="translate(0,0)"/>
<path d="" fill="#000000" transform="translate(0,0)"/>
</svg>
